<?xml version="1.0" encoding="UTF-8" standalone="no"?>
<!DOCTYPE svg PUBLIC "-//W3C//DTD SVG 1.1//EN" "http://www.w3.org/Graphics/SVG/1.1/DTD/svg11.dtd">
<!-- Generated by graphviz version 2.40.1 (20161225.0304)
 -->
<!-- Pages: 1 -->
<svg width="671pt" height="726pt" viewBox="0.00 0.00 671.43 726.00" xmlns="http://www.w3.org/2000/svg" xmlns:xlink="http://www.w3.org/1999/xlink">
<g id="graph0" class="graph" transform="scale(1 1) rotate(0) translate(4 722)">
<polygon fill="#d3d3d3" stroke="transparent" points="-4,4 -4,-722 667.4316,-722 667.4316,4 -4,4"/>
<g id="clust1" class="cluster">
<title>cluster~</title>
<path fill="#d3d3d3" stroke="#000000" stroke-width="2.6" d="M20,-8C20,-8 643.4316,-8 643.4316,-8 649.4316,-8 655.4316,-14 655.4316,-20 655.4316,-20 655.4316,-698 655.4316,-698 655.4316,-704 649.4316,-710 643.4316,-710 643.4316,-710 20,-710 20,-710 14,-710 8,-704 8,-698 8,-698 8,-20 8,-20 8,-14 14,-8 20,-8"/>
<text text-anchor="middle" x="331.7158" y="-694.3" font-family="Arial Black" font-size="13.00" fill="#000000">practice_1</text>
</g>
<g id="clust2" class="cluster">
<title>cluster~/bin</title>
<path fill="#7b68ee" stroke="#000000" stroke-width="2.6" d="M28,-88C28,-88 91.3464,-88 91.3464,-88 97.3464,-88 103.3464,-94 103.3464,-100 103.3464,-100 103.3464,-152 103.3464,-152 103.3464,-158 97.3464,-164 91.3464,-164 91.3464,-164 28,-164 28,-164 22,-164 16,-158 16,-152 16,-152 16,-100 16,-100 16,-94 22,-88 28,-88"/>
<text text-anchor="middle" x="59.6732" y="-148.3" font-family="Arial Black" font-size="13.00" fill="#000000">bin</text>
</g>
<g id="clust3" class="cluster">
<title>cluster~/lib</title>
<path fill="#d3d3d3" stroke="#000000" stroke-width="2.6" d="M123.3464,-16C123.3464,-16 635.4316,-16 635.4316,-16 641.4316,-16 647.4316,-22 647.4316,-28 647.4316,-28 647.4316,-666 647.4316,-666 647.4316,-672 641.4316,-678 635.4316,-678 635.4316,-678 123.3464,-678 123.3464,-678 117.3464,-678 111.3464,-672 111.3464,-666 111.3464,-666 111.3464,-28 111.3464,-28 111.3464,-22 117.3464,-16 123.3464,-16"/>
<text text-anchor="middle" x="379.389" y="-662.3" font-family="Arial Black" font-size="13.00" fill="#000000">lib</text>
</g>
<g id="clust4" class="cluster">
<title>cluster~/lib/features</title>
<path fill="#d3d3d3" stroke="#000000" stroke-width="2.6" d="M131.3464,-24C131.3464,-24 627.4316,-24 627.4316,-24 633.4316,-24 639.4316,-30 639.4316,-36 639.4316,-36 639.4316,-634 639.4316,-634 639.4316,-640 633.4316,-646 627.4316,-646 627.4316,-646 131.3464,-646 131.3464,-646 125.3464,-646 119.3464,-640 119.3464,-634 119.3464,-634 119.3464,-36 119.3464,-36 119.3464,-30 125.3464,-24 131.3464,-24"/>
<text text-anchor="middle" x="379.389" y="-630.3" font-family="Arial Black" font-size="13.00" fill="#000000">features</text>
</g>
<g id="clust5" class="cluster">
<title>cluster~/lib/features/core</title>
<path fill="#d3d3d3" stroke="#000000" stroke-width="2.6" d="M139.3464,-32C139.3464,-32 619.4316,-32 619.4316,-32 625.4316,-32 631.4316,-38 631.4316,-44 631.4316,-44 631.4316,-602 631.4316,-602 631.4316,-608 625.4316,-614 619.4316,-614 619.4316,-614 139.3464,-614 139.3464,-614 133.3464,-614 127.3464,-608 127.3464,-602 127.3464,-602 127.3464,-44 127.3464,-44 127.3464,-38 133.3464,-32 139.3464,-32"/>
<text text-anchor="middle" x="379.389" y="-598.3" font-family="Arial Black" font-size="13.00" fill="#000000">core</text>
</g>
<g id="clust6" class="cluster">
<title>cluster~/lib/features/core/data</title>
<path fill="#d3d3d3" stroke="#000000" stroke-width="2.6" d="M147.3464,-40C147.3464,-40 609.4242,-40 609.4242,-40 615.4242,-40 621.4242,-46 621.4242,-52 621.4242,-52 621.4242,-392 621.4242,-392 621.4242,-398 615.4242,-404 609.4242,-404 609.4242,-404 147.3464,-404 147.3464,-404 141.3464,-404 135.3464,-398 135.3464,-392 135.3464,-392 135.3464,-52 135.3464,-52 135.3464,-46 141.3464,-40 147.3464,-40"/>
<text text-anchor="middle" x="600.7778" y="-388.3" font-family="Arial Black" font-size="13.00" fill="#000000">data</text>
</g>
<g id="clust7" class="cluster">
<title>cluster~/lib/features/core/data/debug</title>
<path fill="#f0e68c" stroke="#000000" stroke-width="2.6" d="M155.3464,-296C155.3464,-296 305.388,-296 305.388,-296 311.388,-296 317.388,-302 317.388,-308 317.388,-308 317.388,-360 317.388,-360 317.388,-366 311.388,-372 305.388,-372 305.388,-372 155.3464,-372 155.3464,-372 149.3464,-372 143.3464,-366 143.3464,-360 143.3464,-360 143.3464,-308 143.3464,-308 143.3464,-302 149.3464,-296 155.3464,-296"/>
<text text-anchor="middle" x="230.3672" y="-356.3" font-family="Arial Black" font-size="13.00" fill="#000000">debug</text>
</g>
<g id="clust8" class="cluster">
<title>cluster~/lib/features/core/data/osm</title>
<path fill="#f0e68c" stroke="#000000" stroke-width="2.6" d="M160.6906,-172C160.6906,-172 601.4242,-172 601.4242,-172 607.4242,-172 613.4242,-178 613.4242,-184 613.4242,-184 613.4242,-276 613.4242,-276 613.4242,-282 607.4242,-288 601.4242,-288 601.4242,-288 160.6906,-288 160.6906,-288 154.6906,-288 148.6906,-282 148.6906,-276 148.6906,-276 148.6906,-184 148.6906,-184 148.6906,-178 154.6906,-172 160.6906,-172"/>
<text text-anchor="middle" x="381.0574" y="-272.3" font-family="Arial Black" font-size="13.00" fill="#000000">osm</text>
</g>
<g id="clust9" class="cluster">
<title>cluster~/lib/features/core/data/osm/models</title>
<path fill="#f0e68c" stroke="#000000" stroke-width="2.6" d="M513.4122,-180C513.4122,-180 593.4242,-180 593.4242,-180 599.4242,-180 605.4242,-186 605.4242,-192 605.4242,-192 605.4242,-244 605.4242,-244 605.4242,-250 599.4242,-256 593.4242,-256 593.4242,-256 513.4122,-256 513.4122,-256 507.4122,-256 501.4122,-250 501.4122,-244 501.4122,-244 501.4122,-192 501.4122,-192 501.4122,-186 507.4122,-180 513.4122,-180"/>
<text text-anchor="middle" x="553.4182" y="-240.3" font-family="Arial Black" font-size="13.00" fill="#000000">models</text>
</g>
<g id="clust10" class="cluster">
<title>cluster~/lib/features/core/data/wa</title>
<path fill="#f0e68c" stroke="#000000" stroke-width="2.6" d="M164.3566,-48C164.3566,-48 597.7582,-48 597.7582,-48 603.7582,-48 609.7582,-54 609.7582,-60 609.7582,-60 609.7582,-152 609.7582,-152 609.7582,-158 603.7582,-164 597.7582,-164 597.7582,-164 164.3566,-164 164.3566,-164 158.3566,-164 152.3566,-158 152.3566,-152 152.3566,-152 152.3566,-60 152.3566,-60 152.3566,-54 158.3566,-48 164.3566,-48"/>
<text text-anchor="middle" x="381.0574" y="-148.3" font-family="Arial Black" font-size="13.00" fill="#000000">wa</text>
</g>
<g id="clust11" class="cluster">
<title>cluster~/lib/features/core/data/wa/models</title>
<path fill="#f0e68c" stroke="#000000" stroke-width="2.6" d="M517.0782,-56C517.0782,-56 589.7582,-56 589.7582,-56 595.7582,-56 601.7582,-62 601.7582,-68 601.7582,-68 601.7582,-120 601.7582,-120 601.7582,-126 595.7582,-132 589.7582,-132 589.7582,-132 517.0782,-132 517.0782,-132 511.0782,-132 505.0782,-126 505.0782,-120 505.0782,-120 505.0782,-68 505.0782,-68 505.0782,-62 511.0782,-56 517.0782,-56"/>
<text text-anchor="middle" x="553.4182" y="-116.3" font-family="Arial Black" font-size="13.00" fill="#000000">models</text>
</g>
<g id="clust12" class="cluster">
<title>cluster~/lib/features/core/domain</title>
<path fill="#ffa500" stroke="#000000" stroke-width="2.6" d="M341.388,-412C341.388,-412 611.4316,-412 611.4316,-412 617.4316,-412 623.4316,-418 623.4316,-424 623.4316,-424 623.4316,-570 623.4316,-570 623.4316,-576 617.4316,-582 611.4316,-582 611.4316,-582 341.388,-582 341.388,-582 335.388,-582 329.388,-576 329.388,-570 329.388,-570 329.388,-424 329.388,-424 329.388,-418 335.388,-412 341.388,-412"/>
<text text-anchor="middle" x="476.4098" y="-566.3" font-family="Arial Black" font-size="13.00" fill="#000000">domain</text>
</g>
<g id="clust13" class="cluster">
<title>cluster~/lib/features/core/domain/entities</title>
<path fill="#ffa500" stroke="#000000" stroke-width="2.6" d="M503.4048,-420C503.4048,-420 603.4316,-420 603.4316,-420 609.4316,-420 615.4316,-426 615.4316,-432 615.4316,-432 615.4316,-538 615.4316,-538 615.4316,-544 609.4316,-550 603.4316,-550 603.4316,-550 503.4048,-550 503.4048,-550 497.4048,-550 491.4048,-544 491.4048,-538 491.4048,-538 491.4048,-432 491.4048,-432 491.4048,-426 497.4048,-420 503.4048,-420"/>
<text text-anchor="middle" x="553.4182" y="-534.3" font-family="Arial Black" font-size="13.00" fill="#000000">entities</text>
</g>
<g id="clust14" class="cluster">
<title>cluster~/lib/features/core/domain/repositories</title>
<path fill="#ffa500" stroke="#000000" stroke-width="2.6" d="M349.388,-420C349.388,-420 459.4048,-420 459.4048,-420 465.4048,-420 471.4048,-426 471.4048,-432 471.4048,-432 471.4048,-484 471.4048,-484 471.4048,-490 465.4048,-496 459.4048,-496 459.4048,-496 349.388,-496 349.388,-496 343.388,-496 337.388,-490 337.388,-484 337.388,-484 337.388,-432 337.388,-432 337.388,-426 343.388,-420 349.388,-420"/>
<text text-anchor="middle" x="404.3964" y="-480.3" font-family="Arial Black" font-size="13.00" fill="#000000">repositories</text>
</g>
<g id="clust15" class="cluster">
<title>cluster~/lib/features/core/presentation</title>
<path fill="#32cd32" stroke="#000000" stroke-width="2.6" d="M207.3672,-449C207.3672,-449 253.3672,-449 253.3672,-449 259.3672,-449 265.3672,-455 265.3672,-461 265.3672,-461 265.3672,-508 265.3672,-508 265.3672,-514 259.3672,-520 253.3672,-520 253.3672,-520 207.3672,-520 207.3672,-520 201.3672,-520 195.3672,-514 195.3672,-508 195.3672,-508 195.3672,-461 195.3672,-461 195.3672,-455 201.3672,-449 207.3672,-449"/>
<text text-anchor="middle" x="230.3672" y="-507.9" font-family="Arial Black" font-size="9.00" fill="#000000">presentation</text>
</g>
<!-- /bin/practice_1.dart -->
<g id="node1" class="node">
<title>/bin/practice_1.dart</title>
<polygon fill="#f5f5dc" stroke="#f5f5dc" points="95.5204,-132 23.826,-132 23.826,-96 95.5204,-96 95.5204,-132"/>
<text text-anchor="middle" x="59.6732" y="-110.4" font-family="Arial" font-size="12.00" fill="#000000">practice_1</text>
</g>
<!-- /lib/features/core/data/wa/wa_api.dart -->
<g id="node7" class="node">
<title>/lib/features/core/data/wa/wa_api.dart</title>
<polygon fill="#f5f5dc" stroke="#f5f5dc" points="431.4052,-100 377.3876,-100 377.3876,-64 431.4052,-64 431.4052,-100"/>
<text text-anchor="middle" x="404.3964" y="-78.4" font-family="Arial" font-size="12.00" fill="#000000">wa_api</text>
</g>
<!-- /bin/practice_1.dart&#45;&gt;/lib/features/core/data/wa/wa_api.dart -->
<g id="edge1" class="edge">
<title>/bin/practice_1.dart-&gt;/lib/features/core/data/wa/wa_api.dart</title>
<path fill="none" stroke="#000000" stroke-width="1.3" d="M88.5077,-95.9559C95.71,-92.2991 103.5973,-88.9727 111.3464,-87 200.755,-64.2389 310.5178,-71.2112 366.9524,-77.2166"/>
<polygon fill="#000000" stroke="#000000" stroke-width="1.3" points="366.8533,-80.7272 377.1797,-78.3575 367.6294,-73.7703 366.8533,-80.7272"/>
</g>
<!-- /lib/features/core/data/wa/weather_repository_wa.dart -->
<g id="node8" class="node">
<title>/lib/features/core/data/wa/weather_repository_wa.dart</title>
<polygon fill="#f5f5dc" stroke="#f5f5dc" points="300.3884,-132 160.346,-132 160.346,-96 300.3884,-96 300.3884,-132"/>
<text text-anchor="middle" x="230.3672" y="-110.4" font-family="Arial" font-size="12.00" fill="#000000">weather_repository_wa</text>
</g>
<!-- /bin/practice_1.dart&#45;&gt;/lib/features/core/data/wa/weather_repository_wa.dart -->
<g id="edge2" class="edge">
<title>/bin/practice_1.dart-&gt;/lib/features/core/data/wa/weather_repository_wa.dart</title>
<path fill="none" stroke="#000000" stroke-width="1.3" d="M95.4563,-114C111.3666,-114 130.7938,-114 149.8944,-114"/>
<polygon fill="#000000" stroke="#000000" stroke-width="1.3" points="150.1389,-117.5001 160.1388,-114 150.1388,-110.5001 150.1389,-117.5001"/>
</g>
<!-- /lib/features/core/presentation/app.dart -->
<g id="node12" class="node">
<title>/lib/features/core/presentation/app.dart</title>
<polygon fill="#f5f5dc" stroke="#f5f5dc" points="257.3672,-493 203.3672,-493 203.3672,-457 257.3672,-457 257.3672,-493"/>
<text text-anchor="middle" x="230.3672" y="-471.4" font-family="Arial" font-size="12.00" fill="#000000">app</text>
</g>
<!-- /bin/practice_1.dart&#45;&gt;/lib/features/core/presentation/app.dart -->
<g id="edge3" class="edge">
<title>/bin/practice_1.dart-&gt;/lib/features/core/presentation/app.dart</title>
<path fill="none" stroke="#000000" stroke-width="1.3" d="M61.6713,-132.2836C67.6426,-184.6545 86.4916,-334.1428 111.3464,-376 131.381,-409.7396 167.2745,-437.1947 194.4222,-454.5599"/>
<polygon fill="#000000" stroke="#000000" stroke-width="1.3" points="192.9182,-457.7462 203.258,-460.0566 196.6158,-451.8024 192.9182,-457.7462"/>
</g>
<!-- /lib/features/core/data/debug/weather_repository_debug.dart -->
<g id="node2" class="node">
<title>/lib/features/core/data/debug/weather_repository_debug.dart</title>
<polygon fill="#f5f5dc" stroke="#f5f5dc" points="309.4088,-340 151.3256,-340 151.3256,-304 309.4088,-304 309.4088,-340"/>
<text text-anchor="middle" x="230.3672" y="-318.4" font-family="Arial" font-size="12.00" fill="#000000">weather_repository_debug</text>
</g>
<!-- /lib/features/core/domain/entities/search_query.dart -->
<g id="node9" class="node">
<title>/lib/features/core/domain/entities/search_query.dart</title>
<polygon fill="#f5f5dc" stroke="#f5f5dc" points="597.604,-518 509.2324,-518 509.2324,-482 597.604,-482 597.604,-518"/>
<text text-anchor="middle" x="553.4182" y="-496.4" font-family="Arial" font-size="12.00" fill="#000000">search_query</text>
</g>
<!-- /lib/features/core/data/debug/weather_repository_debug.dart&#45;&gt;/lib/features/core/domain/entities/search_query.dart -->
<g id="edge4" class="edge">
<title>/lib/features/core/data/debug/weather_repository_debug.dart-&gt;/lib/features/core/domain/entities/search_query.dart</title>
<path fill="none" stroke="#ff1493" stroke-width="1.3" d="M254.8008,-340.1782C274.1402,-353.7725 302.3115,-371.8631 329.388,-383 389.3169,-407.6495 423.1531,-372.7468 471.4048,-416 491.3961,-433.9204 473.1279,-453.3341 491.4048,-473 494.1152,-475.9164 497.1955,-478.5339 500.5001,-480.8805"/>
<polygon fill="#ff1493" stroke="#ff1493" stroke-width="1.3" points="498.7433,-483.909 509.0938,-486.1715 502.4134,-477.9482 498.7433,-483.909"/>
</g>
<!-- /lib/features/core/domain/entities/search_response.dart -->
<g id="node10" class="node">
<title>/lib/features/core/domain/entities/search_response.dart</title>
<polygon fill="#f5f5dc" stroke="#f5f5dc" points="607.445,-464 499.3914,-464 499.3914,-428 607.445,-428 607.445,-464"/>
<text text-anchor="middle" x="553.4182" y="-442.4" font-family="Arial" font-size="12.00" fill="#000000">search_response</text>
</g>
<!-- /lib/features/core/data/debug/weather_repository_debug.dart&#45;&gt;/lib/features/core/domain/entities/search_response.dart -->
<g id="edge5" class="edge">
<title>/lib/features/core/data/debug/weather_repository_debug.dart-&gt;/lib/features/core/domain/entities/search_response.dart</title>
<path fill="none" stroke="#ff1493" stroke-width="1.3" d="M287.3881,-340.0071C347.4598,-359.1832 437.9095,-388.6982 471.4048,-403 485.0871,-408.8421 499.5942,-416.0793 512.5419,-422.9396"/>
<polygon fill="#ff1493" stroke="#ff1493" stroke-width="1.3" points="511.1952,-426.1894 521.6602,-427.8431 514.5106,-420.0243 511.1952,-426.1894"/>
</g>
<!-- /lib/features/core/domain/repositories/weather_repository.dart -->
<g id="node11" class="node">
<title>/lib/features/core/domain/repositories/weather_repository.dart</title>
<polygon fill="#f5f5dc" stroke="#f5f5dc" points="463.4132,-464 345.3796,-464 345.3796,-428 463.4132,-428 463.4132,-464"/>
<text text-anchor="middle" x="404.3964" y="-442.4" font-family="Arial" font-size="12.00" fill="#000000">weather_repository</text>
</g>
<!-- /lib/features/core/data/debug/weather_repository_debug.dart&#45;&gt;/lib/features/core/domain/repositories/weather_repository.dart -->
<g id="edge6" class="edge">
<title>/lib/features/core/data/debug/weather_repository_debug.dart-&gt;/lib/features/core/domain/repositories/weather_repository.dart</title>
<path fill="none" stroke="#ff1493" stroke-width="1.3" d="M246.7835,-340.3321C265.326,-360.2139 297.1394,-391.9252 329.388,-413 335.0691,-416.7127 341.2375,-420.1875 347.5142,-423.3843"/>
<polygon fill="#ff1493" stroke="#ff1493" stroke-width="1.3" points="346.2192,-426.6462 356.7438,-427.8643 349.276,-420.3489 346.2192,-426.6462"/>
</g>
<!-- /lib/features/core/data/osm/models/osm_weather.dart -->
<g id="node3" class="node">
<title>/lib/features/core/data/osm/models/osm_weather.dart</title>
<polygon fill="#f5f5dc" stroke="#f5f5dc" points="597.4302,-224 509.4062,-224 509.4062,-188 597.4302,-188 597.4302,-224"/>
<text text-anchor="middle" x="553.4182" y="-202.4" font-family="Arial" font-size="12.00" fill="#000000">osm_weather</text>
</g>
<!-- /lib/features/core/data/osm/osm_api.dart -->
<g id="node4" class="node">
<title>/lib/features/core/data/osm/osm_api.dart</title>
<polygon fill="#f5f5dc" stroke="#f5f5dc" points="435.2382,-240 373.5546,-240 373.5546,-204 435.2382,-204 435.2382,-240"/>
<text text-anchor="middle" x="404.3964" y="-218.4" font-family="Arial" font-size="12.00" fill="#000000">osm_api</text>
</g>
<!-- /lib/features/core/data/osm/osm_api.dart&#45;&gt;/lib/features/core/data/osm/models/osm_weather.dart -->
<g id="edge7" class="edge">
<title>/lib/features/core/data/osm/osm_api.dart-&gt;/lib/features/core/data/osm/models/osm_weather.dart</title>
<path fill="none" stroke="#000000" stroke-width="1.3" d="M435.2738,-218.6848C453.7467,-216.7014 477.7442,-214.1249 499.2816,-211.8125"/>
<polygon fill="#000000" stroke="#000000" stroke-width="1.3" points="499.7283,-215.2847 509.2975,-210.7371 498.9809,-208.3247 499.7283,-215.2847"/>
</g>
<!-- /lib/features/core/data/osm/weather_repository_osm.dart -->
<g id="node5" class="node">
<title>/lib/features/core/data/osm/weather_repository_osm.dart</title>
<polygon fill="#f5f5dc" stroke="#f5f5dc" points="304.2208,-256 156.5136,-256 156.5136,-220 304.2208,-220 304.2208,-256"/>
<text text-anchor="middle" x="230.3672" y="-234.4" font-family="Arial" font-size="12.00" fill="#000000">weather_repository_osm</text>
</g>
<!-- /lib/features/core/data/osm/weather_repository_osm.dart&#45;&gt;/lib/features/core/data/osm/osm_api.dart -->
<g id="edge8" class="edge">
<title>/lib/features/core/data/osm/weather_repository_osm.dart-&gt;/lib/features/core/data/osm/osm_api.dart</title>
<path fill="none" stroke="#000000" stroke-width="1.3" d="M304.1712,-231.2146C324.4608,-229.3492 345.7316,-227.3936 363.4314,-225.7663"/>
<polygon fill="#000000" stroke="#000000" stroke-width="1.3" points="363.7682,-229.2502 373.4057,-224.8492 363.1273,-222.2796 363.7682,-229.2502"/>
</g>
<!-- /lib/features/core/data/osm/weather_repository_osm.dart&#45;&gt;/lib/features/core/domain/entities/search_query.dart -->
<g id="edge9" class="edge">
<title>/lib/features/core/data/osm/weather_repository_osm.dart-&gt;/lib/features/core/domain/entities/search_query.dart</title>
<path fill="none" stroke="#ba55d3" stroke-width="1.3" d="M273.5452,-256.2093C289.453,-264.898 306.2814,-276.7733 317.388,-292 330.3467,-309.7659 314.0189,-324.2728 329.388,-340 375.1359,-386.8138 426.4912,-331.3852 471.4048,-379 500.7132,-410.0711 464.3848,-439.9196 491.4048,-473 494.0047,-476.183 497.0528,-479.0003 500.378,-481.4925"/>
<polygon fill="#ba55d3" stroke="#ba55d3" stroke-width="1.3" points="498.7986,-484.6355 509.1168,-487.0406 502.5505,-478.7259 498.7986,-484.6355"/>
</g>
<!-- /lib/features/core/data/osm/weather_repository_osm.dart&#45;&gt;/lib/features/core/domain/entities/search_response.dart -->
<g id="edge10" class="edge">
<title>/lib/features/core/data/osm/weather_repository_osm.dart-&gt;/lib/features/core/domain/entities/search_response.dart</title>
<path fill="none" stroke="#ba55d3" stroke-width="1.3" d="M265.9021,-256.0475C282.5493,-265.4657 302.0446,-277.9523 317.388,-292 323.9441,-298.0025 322.3031,-302.6319 329.388,-308 383.338,-348.8764 414.8035,-325.8815 471.4048,-363 495.2028,-378.6065 517.5796,-402.0794 532.9284,-420.0852"/>
<polygon fill="#ba55d3" stroke="#ba55d3" stroke-width="1.3" points="530.3736,-422.4866 539.4659,-427.9256 535.7499,-418.0037 530.3736,-422.4866"/>
</g>
<!-- /lib/features/core/data/osm/weather_repository_osm.dart&#45;&gt;/lib/features/core/domain/repositories/weather_repository.dart -->
<g id="edge11" class="edge">
<title>/lib/features/core/data/osm/weather_repository_osm.dart-&gt;/lib/features/core/domain/repositories/weather_repository.dart</title>
<path fill="none" stroke="#ba55d3" stroke-width="1.3" d="M275.2335,-256.1595C290.9695,-264.7354 307.235,-276.5452 317.388,-292 337.37,-322.4165 312.8081,-340.6032 329.388,-373 339.0273,-391.8351 355.4153,-408.6383 370.4188,-421.3615"/>
<polygon fill="#ba55d3" stroke="#ba55d3" stroke-width="1.3" points="368.5974,-424.3921 378.5601,-427.9971 373.0199,-418.9662 368.5974,-424.3921"/>
</g>
<!-- /lib/features/core/data/wa/models/wa_weather.dart -->
<g id="node6" class="node">
<title>/lib/features/core/data/wa/models/wa_weather.dart</title>
<polygon fill="#f5f5dc" stroke="#f5f5dc" points="593.5988,-100 513.2376,-100 513.2376,-64 593.5988,-64 593.5988,-100"/>
<text text-anchor="middle" x="553.4182" y="-78.4" font-family="Arial" font-size="12.00" fill="#000000">wa_weather</text>
</g>
<!-- /lib/features/core/data/wa/wa_api.dart&#45;&gt;/lib/features/core/data/wa/models/wa_weather.dart -->
<g id="edge12" class="edge">
<title>/lib/features/core/data/wa/wa_api.dart-&gt;/lib/features/core/data/wa/models/wa_weather.dart</title>
<path fill="none" stroke="#000000" stroke-width="1.3" d="M431.7293,-82C451.565,-82 478.9785,-82 502.7653,-82"/>
<polygon fill="#000000" stroke="#000000" stroke-width="1.3" points="503.0509,-85.5001 513.0508,-82 503.0508,-78.5001 503.0509,-85.5001"/>
</g>
<!-- /lib/features/core/data/wa/weather_repository_wa.dart&#45;&gt;/lib/features/core/data/wa/wa_api.dart -->
<g id="edge13" class="edge">
<title>/lib/features/core/data/wa/weather_repository_wa.dart-&gt;/lib/features/core/data/wa/wa_api.dart</title>
<path fill="none" stroke="#000000" stroke-width="1.3" d="M300.3993,-101.1227C323.2966,-96.9124 347.8263,-92.4019 367.309,-88.8195"/>
<polygon fill="#000000" stroke="#000000" stroke-width="1.3" points="368.0836,-92.2359 377.2857,-86.985 366.8176,-85.3513 368.0836,-92.2359"/>
</g>
<!-- /lib/features/core/data/wa/weather_repository_wa.dart&#45;&gt;/lib/features/core/domain/entities/search_query.dart -->
<g id="edge14" class="edge">
<title>/lib/features/core/data/wa/weather_repository_wa.dart-&gt;/lib/features/core/domain/entities/search_query.dart</title>
<path fill="none" stroke="#000080" stroke-width="1.3" d="M276.2125,-132.0748C291.8673,-140.5913 307.8225,-152.383 317.388,-168 334.0444,-195.1938 307.8822,-287.4535 329.388,-311 372.6088,-358.322 426.7555,-290.0234 471.4048,-336 514.2743,-380.1438 454.0398,-424.109 491.4048,-473 494.0118,-476.4112 497.1391,-479.3987 500.5849,-482.0141"/>
<polygon fill="#000080" stroke="#000080" stroke-width="1.3" points="498.7979,-485.0258 509.1081,-487.4652 502.5695,-479.1287 498.7979,-485.0258"/>
</g>
<!-- /lib/features/core/data/wa/weather_repository_wa.dart&#45;&gt;/lib/features/core/domain/entities/search_response.dart -->
<g id="edge15" class="edge">
<title>/lib/features/core/data/wa/weather_repository_wa.dart-&gt;/lib/features/core/domain/entities/search_response.dart</title>
<path fill="none" stroke="#000080" stroke-width="1.3" d="M276.106,-132.1405C291.7485,-140.6646 307.7231,-152.4444 317.388,-168 331.9982,-191.5151 310.866,-271.4244 329.388,-292 372.4884,-339.8793 418.083,-284.8495 471.4048,-321 506.5731,-344.843 530.2997,-389.3052 542.8371,-418.2674"/>
<polygon fill="#000080" stroke="#000080" stroke-width="1.3" points="539.7328,-419.9177 546.8055,-427.8061 546.1958,-417.2288 539.7328,-419.9177"/>
</g>
<!-- /lib/features/core/data/wa/weather_repository_wa.dart&#45;&gt;/lib/features/core/domain/repositories/weather_repository.dart -->
<g id="edge16" class="edge">
<title>/lib/features/core/data/wa/weather_repository_wa.dart-&gt;/lib/features/core/domain/repositories/weather_repository.dart</title>
<path fill="none" stroke="#000080" stroke-width="1.3" d="M276.2983,-132.0225C291.9629,-140.533 307.9025,-152.3343 317.388,-168 336.1999,-199.0688 317.7658,-296.5895 329.388,-331 340.683,-364.442 364.0087,-397.6742 381.6676,-419.7496"/>
<polygon fill="#000080" stroke="#000080" stroke-width="1.3" points="379.0812,-422.1157 388.1211,-427.6411 384.4999,-417.6843 379.0812,-422.1157"/>
</g>
<!-- /lib/features/core/domain/repositories/weather_repository.dart&#45;&gt;/lib/features/core/domain/entities/search_query.dart -->
<g id="edge17" class="edge">
<title>/lib/features/core/domain/repositories/weather_repository.dart-&gt;/lib/features/core/domain/entities/search_query.dart</title>
<path fill="none" stroke="#000000" stroke-width="1.3" d="M454.4331,-464.1314C468.8603,-469.3594 484.6648,-475.0863 499.3262,-480.3991"/>
<polygon fill="#000000" stroke="#000000" stroke-width="1.3" points="498.1756,-483.7048 508.7699,-483.8211 500.5605,-477.1235 498.1756,-483.7048"/>
</g>
<!-- /lib/features/core/domain/repositories/weather_repository.dart&#45;&gt;/lib/features/core/domain/entities/search_response.dart -->
<g id="edge18" class="edge">
<title>/lib/features/core/domain/repositories/weather_repository.dart-&gt;/lib/features/core/domain/entities/search_response.dart</title>
<path fill="none" stroke="#000000" stroke-width="1.3" d="M463.722,-446C472.0314,-446 480.604,-446 489.0022,-446"/>
<polygon fill="#000000" stroke="#000000" stroke-width="1.3" points="489.1305,-449.5001 499.1304,-446 489.1304,-442.5001 489.1305,-449.5001"/>
</g>
<!-- /lib/features/core/presentation/app.dart&#45;&gt;/lib/features/core/domain/entities/search_query.dart -->
<g id="edge19" class="edge">
<title>/lib/features/core/presentation/app.dart-&gt;/lib/features/core/domain/entities/search_query.dart</title>
<path fill="none" stroke="#228b22" stroke-width="1.3" d="M257.4383,-487.388C276.973,-495.6215 304.2287,-505.6844 329.388,-510 386.6454,-519.8214 453.2671,-514.7962 498.8842,-508.895"/>
<polygon fill="#228b22" stroke="#228b22" stroke-width="1.3" points="499.4194,-512.3546 508.8607,-507.5471 498.4821,-505.4176 499.4194,-512.3546"/>
</g>
<!-- /lib/features/core/presentation/app.dart&#45;&gt;/lib/features/core/domain/entities/search_response.dart -->
<g id="edge20" class="edge">
<title>/lib/features/core/presentation/app.dart-&gt;/lib/features/core/domain/entities/search_response.dart</title>
<path fill="none" stroke="#228b22" stroke-width="1.3" d="M257.7623,-483.8615C277.4498,-489.7486 304.7548,-496.9384 329.388,-500 360.7063,-503.8924 443.2194,-514.1977 471.4048,-500 484.7419,-493.2818 479.7176,-482.2963 491.4048,-473 492.9556,-471.7665 494.5714,-470.5783 496.2368,-469.4347"/>
<polygon fill="#228b22" stroke="#228b22" stroke-width="1.3" points="498.2337,-472.3153 504.9076,-464.0867 494.5589,-466.3575 498.2337,-472.3153"/>
</g>
<!-- /lib/features/core/presentation/app.dart&#45;&gt;/lib/features/core/domain/repositories/weather_repository.dart -->
<g id="edge21" class="edge">
<title>/lib/features/core/presentation/app.dart-&gt;/lib/features/core/domain/repositories/weather_repository.dart</title>
<path fill="none" stroke="#228b22" stroke-width="1.3" d="M257.5593,-470.4688C278.4188,-466.9927 308.1683,-462.0353 335.4417,-457.4905"/>
<polygon fill="#228b22" stroke="#228b22" stroke-width="1.3" points="336.068,-460.9345 345.3567,-455.8383 334.9173,-454.0297 336.068,-460.9345"/>
</g>
</g>
</svg>